<svg id="Capa_1" enable-background="new 0 0 510 510" height="512" viewBox="0 0 510 510" width="512" xmlns="http://www.w3.org/2000/svg" xmlns:xlink="http://www.w3.org/1999/xlink"><linearGradient id="SVGID_1_" gradientUnits="userSpaceOnUse" x1="242.563" x2="297.424" y1="442.296" y2="562.306"><stop offset="0" stop-color="#92f37f"/><stop offset="1" stop-color="#4ab272"/></linearGradient><linearGradient id="SVGID_2_" gradientUnits="userSpaceOnUse" x1="276.373" x2="88.82" y1="466.973" y2="351.556"><stop offset="0" stop-color="#92f37f" stop-opacity="0"/><stop offset="1" stop-color="#ffee83"/></linearGradient><linearGradient id="lg1"><stop offset="0" stop-color="#4ab272" stop-opacity="0"/><stop offset="1" stop-color="#009245"/></linearGradient><linearGradient id="SVGID_3_" gradientUnits="userSpaceOnUse" x1="266.832" x2="352.832" xlink:href="#lg1" y1="492.112" y2="585.112"/><linearGradient id="SVGID_4_" gradientUnits="userSpaceOnUse" x1="254.052" x2="162.552" xlink:href="#lg1" y1="461.222" y2="438.722"/><linearGradient id="lg2"><stop offset="0" stop-color="#ffdaaa"/><stop offset=".4213" stop-color="#ffd8a8"/><stop offset=".6519" stop-color="#fed1a0"/><stop offset=".8359" stop-color="#fdc592"/><stop offset=".9951" stop-color="#fcb47f"/><stop offset="1" stop-color="#fcb37e"/></linearGradient><linearGradient id="SVGID_5_" gradientUnits="userSpaceOnUse" x1="211.313" x2="296.819" xlink:href="#lg2" y1="378.569" y2="389.722"/><linearGradient id="lg3"><stop offset="0" stop-color="#fcb37e" stop-opacity="0"/><stop offset="1" stop-color="#ff7044"/></linearGradient><linearGradient id="SVGID_6_" gradientUnits="userSpaceOnUse" x1="265.713" x2="253.713" xlink:href="#lg3" y1="400.919" y2="338.419"/><linearGradient id="lg4"><stop offset="0" stop-color="#ffdaaa"/><stop offset=".5752" stop-color="#fdc592"/><stop offset="1" stop-color="#fcb37e"/></linearGradient><linearGradient id="SVGID_7_" gradientUnits="userSpaceOnUse" x1="133.35" x2="158.85" xlink:href="#lg4" y1="178.003" y2="244.003"/><linearGradient id="SVGID_8_" gradientUnits="userSpaceOnUse" x1="348.255" x2="373.755" xlink:href="#lg4" y1="178.003" y2="244.003"/><radialGradient id="SVGID_9_" cx="217.951" cy="161.806" gradientUnits="userSpaceOnUse" r="188.786" xlink:href="#lg2"/><linearGradient id="SVGID_10_" gradientUnits="userSpaceOnUse" x1="277.33" x2="237.33" xlink:href="#lg3" y1="206.015" y2="116.515"/><linearGradient id="lg5"><stop offset="0" stop-color="#7e8595"/><stop offset="1" stop-color="#555a66"/></linearGradient><linearGradient id="SVGID_11_" gradientUnits="userSpaceOnUse" x1="193.698" x2="218.479" xlink:href="#lg5" y1="198.46" y2="223.241"/><linearGradient id="lg6"><stop offset="0" stop-color="#bec3d2" stop-opacity="0"/><stop offset=".3183" stop-color="#c2c7d5" stop-opacity=".318"/><stop offset=".6082" stop-color="#cdd1de" stop-opacity=".608"/><stop offset=".8861" stop-color="#dfe3ed" stop-opacity=".886"/><stop offset="1" stop-color="#e9edf5"/></linearGradient><linearGradient id="SVGID_12_" gradientUnits="userSpaceOnUse" x1="198.651" x2="184.772" xlink:href="#lg6" y1="202.439" y2="182.431"/><linearGradient id="lg7"><stop offset="0" stop-color="#555a66" stop-opacity="0"/><stop offset="1" stop-color="#555a66"/></linearGradient><linearGradient id="SVGID_13_" gradientUnits="userSpaceOnUse" x1="201.521" x2="227.821" xlink:href="#lg7" y1="212.951" y2="164.037"/><linearGradient id="SVGID_14_" gradientUnits="userSpaceOnUse" x1="301.984" x2="326.766" xlink:href="#lg5" y1="198.46" y2="223.241"/><linearGradient id="SVGID_15_" gradientUnits="userSpaceOnUse" x1="306.937" x2="293.058" xlink:href="#lg6" y1="202.439" y2="182.431"/><linearGradient id="SVGID_16_" gradientUnits="userSpaceOnUse" x1="309.808" x2="336.108" xlink:href="#lg7" y1="212.951" y2="164.037"/><linearGradient id="SVGID_17_" gradientUnits="userSpaceOnUse" x1="255" x2="255" xlink:href="#lg3" y1="224.386" y2="304.046"/><linearGradient id="lg8"><stop offset="0" stop-color="#ffda45"/><stop offset="1" stop-color="#ffa425"/></linearGradient><linearGradient id="SVGID_18_" gradientUnits="userSpaceOnUse" x1="400.179" x2="352.179" xlink:href="#lg8" y1="19.111" y2="114.444"/><linearGradient id="SVGID_19_" gradientUnits="userSpaceOnUse" x1="115.797" x2="322.521" xlink:href="#lg8" y1="99.76" y2="99.76"/><linearGradient id="SVGID_20_" gradientUnits="userSpaceOnUse" x1="251.72" x2="128.386" y1="122.756" y2="68.756"><stop offset="0" stop-color="#ffda45" stop-opacity="0"/><stop offset="1" stop-color="#fcee21"/></linearGradient><linearGradient id="lg9"><stop offset="0" stop-color="#ff7044"/><stop offset="1" stop-color="#f92814"/></linearGradient><linearGradient id="SVGID_21_" gradientUnits="userSpaceOnUse" x1="159.748" x2="226.748" xlink:href="#lg9" y1="438.402" y2="463.402"/><linearGradient id="lg10"><stop offset="0" stop-color="#ff7044" stop-opacity="0"/><stop offset="1" stop-color="#ffa425"/></linearGradient><linearGradient id="SVGID_22_" gradientUnits="userSpaceOnUse" x1="163.041" x2="122.541" xlink:href="#lg10" y1="436.124" y2="409.624"/><linearGradient id="SVGID_23_" gradientUnits="userSpaceOnUse" x1="336.248" x2="403.248" xlink:href="#lg9" y1="438.402" y2="463.402"/><linearGradient id="SVGID_24_" gradientUnits="userSpaceOnUse" x1="339.541" x2="299.041" xlink:href="#lg10" y1="436.124" y2="409.624"/><linearGradient id="SVGID_25_" gradientUnits="userSpaceOnUse" x1="389" x2="363.5" xlink:href="#lg1" y1="444.895" y2="444.895"/><path d="m348.564 376.63h-187.128c-41.074 0-74.37 33.297-74.37 74.37v51.635c0 4.068 3.298 7.366 7.366 7.366h321.137c4.068 0 7.366-3.298 7.366-7.366v-51.635c-.001-41.074-33.297-74.37-74.371-74.37z" fill="url(#SVGID_1_)"/><path d="m353.858 384.907h-173.806c-38.15 0-69.076 30.927-69.076 69.076v49.175c0 3.778 3.063 6.841 6.841 6.841h297.752c4.068 0 7.365-3.298 7.365-7.366v-48.651c0-38.148-30.926-69.075-69.076-69.075z" fill="url(#SVGID_2_)"/><path d="m329.948 384.907h-173.806c-38.15 0-69.076 30.927-69.076 69.076v49.175c0 3.778 3.063 6.841 6.841 6.841h297.752c4.068 0 7.365-3.298 7.365-7.366v-48.651c0-38.148-30.926-69.075-69.076-69.075z" fill="url(#SVGID_3_)"/><path d="m170 510h155.829l-133.37-133.37h-22.459z" fill="url(#SVGID_4_)"/><path d="m263.573 430h-17.146c-20.213 0-36.599-16.386-36.599-36.599v-50.407h90.344v50.407c0 20.213-16.386 36.599-36.599 36.599z" fill="url(#SVGID_5_)"/><path d="m300.172 393.401v-50.407h-90.344v4.257l75.546 75.546c8.979-6.669 14.798-17.352 14.798-29.396z" fill="url(#SVGID_6_)"/><circle cx="147.547" cy="214.75" fill="url(#SVGID_7_)" r="31.75"/><circle cx="362.453" cy="214.75" fill="url(#SVGID_8_)" r="31.75"/><path d="m255 357.154c-59.524 0-107.778-48.254-107.778-107.778v-113.392c0-59.524 48.254-107.778 107.778-107.778 59.524 0 107.778 48.254 107.778 107.778v113.392c0 59.524-48.254 107.778-107.778 107.778z" fill="url(#SVGID_9_)"/><path d="m147.222 199.174 149.574 149.574c36.848-15.517 63.254-50.932 65.776-92.79.037-.65.074-1.301.1-1.948.017-.404.033-.809.046-1.215.035-1.131.059-2.259.059-3.381 0-.013 0-.025 0-.038v-113.392c0-38.133-19.803-71.64-49.687-90.799-.729-.467-1.464-.926-2.204-1.376-1.481-.9-2.986-1.766-4.514-2.595-3.054-1.659-6.198-3.175-9.421-4.539-12.894-5.454-27.071-8.47-41.952-8.47-13.021 0-25.503 2.309-37.058 6.54-.825.302-1.646.614-2.462.936-1.631.643-3.244 1.325-4.835 2.045-5.57 2.518-10.888 5.497-15.905 8.886-5.017 3.39-9.733 7.19-14.101 11.354-1.248 1.19-2.467 2.409-3.657 3.657-4.759 4.991-9.043 10.438-12.781 16.269-.467.729-.926 1.464-1.376 2.204-9.901 16.296-15.603 35.425-15.603 55.887v63.191z" fill="url(#SVGID_10_)"/><circle cx="200.857" cy="205.618" fill="url(#SVGID_11_)" r="19.134"/><circle cx="200.857" cy="205.618" fill="url(#SVGID_12_)" r="15.969"/><path d="m209.416 188.503c1.29 2.576 2.018 5.482 2.018 8.559 0 10.567-8.566 19.134-19.134 19.134-3.077 0-5.984-.727-8.559-2.018 3.142 6.27 9.625 10.575 17.116 10.575 10.567 0 19.134-8.566 19.134-19.134-.001-7.491-4.305-13.975-10.575-17.116z" fill="url(#SVGID_13_)"/><circle cx="309.143" cy="205.618" fill="url(#SVGID_14_)" r="19.134"/><circle cx="309.143" cy="205.618" fill="url(#SVGID_15_)" r="15.969"/><path d="m317.702 188.503c1.29 2.576 2.018 5.482 2.018 8.559 0 10.567-8.566 19.134-19.134 19.134-3.077 0-5.984-.727-8.559-2.018 3.142 6.27 9.625 10.575 17.116 10.575 10.567 0 19.134-8.566 19.134-19.134 0-7.491-4.305-13.975-10.575-17.116z" fill="url(#SVGID_16_)"/><path d="m261.123 280.031h-12.246c-9.813 0-17.459-8.512-16.409-18.269l6.402-59.515h32.259l6.402 59.515c1.05 9.758-6.595 18.269-16.408 18.269z" fill="url(#SVGID_17_)"/><path d="m380.421 199.52c-37.526 0-67.947-30.421-67.947-67.947v-92.199c0-9.536 7.731-17.267 17.267-17.267 35.601 0 64.462 28.861 64.462 64.462v99.169c0 7.612-6.171 13.782-13.782 13.782z" fill="url(#SVGID_18_)"/><path d="m171.882 199.52h-38.585c-9.665 0-17.5-7.835-17.5-17.5v-32.235c0-82.724 67.061-149.785 149.785-149.785h8.058c26.996 0 48.881 21.885 48.881 48.881 0 83.196-67.443 150.639-150.639 150.639z" fill="url(#SVGID_19_)"/><path d="m285.773 12.133h-8.058c-82.724 0-149.785 67.061-149.785 149.785v32.235c0 1.633.24 3.208.659 4.708 1.5.419 3.074.659 4.708.659h38.585c83.196 0 150.639-67.443 150.639-150.639 0-10.399-3.257-20.032-8.792-27.955-7.924-5.536-17.557-8.793-27.956-8.793z" fill="url(#SVGID_20_)"/><path d="m194.02 510h-54.54v-126.294c0-9.286 7.528-16.814 16.814-16.814h20.912c9.286 0 16.814 7.528 16.814 16.814z" fill="url(#SVGID_21_)"/><path d="m177.206 366.892h-9.436c-9.286 0-16.814 7.528-16.814 16.814v126.294h43.063v-126.294c.001-9.286-7.527-16.814-16.813-16.814z" fill="url(#SVGID_22_)"/><path d="m370.52 510h-54.54v-126.294c0-9.286 7.528-16.814 16.814-16.814h20.913c9.286 0 16.814 7.528 16.814 16.814v126.294z" fill="url(#SVGID_23_)"/><path d="m353.706 366.892h-9.436c-9.286 0-16.814 7.528-16.814 16.814v126.294h43.063v-126.294c.001-9.286-7.527-16.814-16.813-16.814z" fill="url(#SVGID_24_)"/><path d="m422.93 451v51.63c0 4.07-3.29 7.37-7.36 7.37h-45.05v-126.29c0-1.35-.16-2.66-.46-3.92 30.59 9.22 52.87 37.61 52.87 71.21z" fill="url(#SVGID_25_)"/></svg>