<?xml version="1.0" encoding="utf-8"?>
<!-- Svg Vector Icons : http://www.onlinewebfonts.com/icon -->
<!DOCTYPE svg PUBLIC "-//W3C//DTD SVG 1.1//EN" "http://www.w3.org/Graphics/SVG/1.1/DTD/svg11.dtd">
<svg version="1.1" xmlns="http://www.w3.org/2000/svg" xmlns:xlink="http://www.w3.org/1999/xlink" x="0px" y="0px" viewBox="0 0 1000 1000" enable-background="new 0 0 1000 1000" xml:space="preserve">
<metadata> Svg Vector Icons : http://www.onlinewebfonts.com/icon </metadata>
<g><path d="M454.3,4.4c25.2-0.3,48.8,0.9,69.3,6c17.7,4.4,34.5,8.6,50.2,14.9c79.3,31.5,135.9,88.8,168.9,166.7c23.6,55.6,30.1,135.3,9.8,200.1c-12.5,39.8-30.9,71.7-53.4,101c-6.4,8.4-13.5,16.1-20.9,23.5c-2.3,2.4-4.7,4.8-7,7.2c-9.8,7.9-18.8,16.8-29.1,24.3c-5.8,4-11.5,7.9-17.3,11.9c16.2,3.8,32.4,12.5,46.8,18.9c34.3,15.2,64.2,35.3,92.4,56.6c9.2,7.9,18.5,15.8,27.7,23.7c8,6.4,16.9,14.8,20.9,25.1c8,20.3-5.9,39.4-19.3,45.2c-10.1,4.3-24.5,3.2-32.9-1.8c-10.6-6.3-18-17.1-27.5-24.7c-17.3-13.8-34.6-27.2-53.8-39.2c-35.4-22.1-75.6-36.9-121.9-48.4c-13.5-3.4-27.3-4-42-6.4c-12.9-2.2-27.2-2.2-41.8-2.2c-7,0.2-13.9,0.4-20.9,0.6c-8.7,0.7-17.4,1.3-26.1,2c-19.7,3.5-38.7,5.6-56.4,10.8c-21.4,6.4-41.4,13.3-60.5,21.7C222.5,680.3,149.3,754.7,111.3,842c-10.3,23.7-17.8,48.9-24.7,76.5c-4.4,17.9-3.5,37.4-13.5,49.8c-8.6,10.8-29.6,17.1-45,8C8.8,965,7.2,947,12.8,920.4c7-33.3,14.7-63.8,26.3-92c15.7-38.1,34.4-71.3,56.6-102.4c7.9-11.1,17.1-21.2,25.5-31.7c3.1-3.3,6.3-6.7,9.4-10c9.6-12,21.9-23.3,33.9-32.9c16.5-13.2,32.4-27.4,50.6-39c18.3-11.5,37.3-23.5,57.8-32.5c8.1-3.5,16.2-7.1,24.3-10.6c3.6-1.4,7.2-2.8,10.8-4.2c0-0.1,0-0.1,0-0.2c-4.8-1.6-9.4-5.7-13.5-8.4c-11.2-7.5-21.3-15.5-31.5-23.7c-4.2-4-8.4-8-12.7-12.1c-13.1-10.6-25.1-26.8-35-40.8c-20.9-29.5-34.9-60.4-46.6-99.6c-3-10-3.9-20.4-6-31.3c-1.6-8.2-1.4-17.4-2.8-26.1c-0.1-3.5-0.1-7-0.2-10.4c0-4.3,0-8.6,0-12.9c0.2-5.6,0.4-11.1,0.6-16.7c1.8-11,1.9-22,4.2-32.3c9-40.5,21.9-74.1,40.8-104.2c37.2-59.3,92.9-104.8,166.1-128c16.6-5.2,34.1-8.1,53-11.4c6.7-0.6,13.4-1.2,20.1-1.8C448,4.7,451.2,4.6,454.3,4.4z M675.9,218.8c7.4,17.9,11.7,37.1,15.7,59.3c1.4,7.6,0.1,15.3,1.4,23.5c1.4,8.6-0.1,22.2-1.4,29.9c-0.7,5.4-1.5,10.8-2.2,16.3c-3.6,16.3-7.5,31.5-13.5,45.4c-27.5,64.6-77.3,110.6-147.4,132.6c-13,4.1-26.9,5.6-41.8,8.2c-6.8,0.4-13.5,0.8-20.3,1.2c-2.6-0.1-5.2-0.1-7.8-0.2c-8.3-1.3-16.3-0.3-23.7-1.6c-6.3-0.9-12.6-1.9-18.9-2.8c-17.8-4.4-33.8-9.5-48.8-16.1c-62.5-27.4-106.1-78.9-126.9-148.2c-7.4-24.6-12-62.9-6-93.2c2.9-15,5.2-29.4,10.2-42.4c26.6-68.2,71-114.2,139.2-140.8c14.1-5.5,29.6-8.3,46-11.4c5.9-0.6,11.8-1.2,17.7-1.8c2.9-0.1,5.9-0.3,8.8-0.4C568.1,76.1,643.2,139.9,675.9,218.8z M950.5,733c28.3-0.4,50.1,27.7,34.1,54c-4.6,7.7-12.2,12.3-17.7,19.1c-12.5,12.7-25,25.4-37.6,38.2c-35.2,35.8-70.4,71.5-105.7,107.3c-8.4,8.4-16.7,16.9-25.1,25.3c-4.5,5.6-10.1,11.1-16.7,14.7c-4.3,2.4-12.1,5-19.3,3.8c-21-3.4-30.2-18.1-42.4-30.3c-19.2-19.2-38.4-38.4-57.6-57.6c-6.2-6.2-12.5-12.5-18.7-18.7c-3.3-3.3-7.1-6.4-9.8-10.2c-8.6-12.1-8-30.2,0.4-42c9.7-13.6,31.8-19.8,49-8.8c8.1,5.1,14.6,13.8,21.3,20.5c20.2,20.1,40.3,40.2,60.5,60.3c2.4-2.3,4.8-4.7,7.2-7c16.1-16.3,32.1-32.7,48.2-49c24.6-24.9,49.1-49.8,73.7-74.7c8.7-8.8,17.4-17.7,26.1-26.5c4.7-4.7,8.9-10,14.9-13.5c2.8-1.7,6.4-3,9.8-3.8C947,733.5,948.7,733.2,950.5,733z"/></g>
</svg>